{"title":"Love Child S03E07 1080P WEB-DL AAC2 0 H 264","uid":15460298,"size":1653322325,"categoryP":"video","categoryS":"hd___tv_shows","magnet":"?xt=urn:btih:f96d6d7fbfa353947a658f8cb0cd9e293c7121cb&amp;dn=Love+Child+S03E07+1080P+WEB-DL+AAC2+0+H+264&amp;tr=udp%3A%2F%2Ftracker.leechers-paradise.org%3A6969&amp;tr=udp%3A%2F%2Fzer0day.ch%3A1337&amp;tr=udp%3A%2F%2Fopen.demonii.com%3A1337&amp;tr=udp%3A%2F%2Ftracker.coppersurfer.tk%3A6969&amp;tr=udp%3A%2F%2Fexodus.desync.com%3A6969","seeders":2,"leechers":2,"uploader":"jmanwf","files":1,"time":1470037105,"description":"Martha (Miranda Tapsell) and Bowditch (Andrew Ryan) face uncomfortable truths about their future\r\n\r\n\r\n\r\nVideo\r\nID : 2\r\nFormat : AVC\r\nFormat/Info : Advanced Video Codec\r\nFormat profile :   \r\nFormat settings, CABAC : Yes\r\nFormat settings, ReFrames : 4 frames\r\nCodec ID : avc1\r\nCodec ID/Info : Advanced Video Coding\r\nDuration : 41mn 52s\r\nBit rate : 5 134 Kbps\r\nWidth : 1 912 pixels\r\nHeight : 1 072 pixels\r\nDisplay aspect ratio : 16:9\r\nFrame rate mode : Variable\r\nFrame rate : 25.000 fps\r\nMinimum frame rate : 25.000 fps\r\nMaximum frame rate : 150.000 fps\r\nColor space : YUV\r\nChroma subsampling : 4:2:0\r\nBit depth : 8 bits\r\nScan type : Progressive\r\nBits/(Pixel*Frame) : 0.100\r\nStream size : 1.50 GiB (98%)\r\nLanguage : English\r\nEncoded date : UTC 2016-07-31 13:05:51\r\nTagged date : UTC 2016-07-31 13:07:38\r\nColor range : Limited\r\nColor primaries : BT.709\r\nTransfer characteristics : BT.709\r\nMatrix coefficients : BT.709\r\n\r\nAudio\r\nID : 1\r\nFormat : AAC\r\nFormat/Info : Advanced Audio Codec\r\nFormat profile : LC\r\nCodec ID : 40\r\nDuration : 41mn 52s\r\nDuration_LastFrame : -3ms\r\nBit rate mode : Variable\r\nBit rate : 126 Kbps\r\nMaximum bit rate : 182 Kbps\r\nChannel(s) : 2 channels\r\nChannel positions : Front: L R\r\nSampling rate : 48.0 KHz\r\nFrame rate : 46.875 fps (1024 spf)\r\nCompression mode : Lossy\r\nStream size : 37.9 MiB (2%)\r\nLanguage : English\r\nDefault : Yes\r\nAlternate group : 1\r\nEncoded date : UTC 2016-07-31 13:03:27\r\nTagged date : UTC 2016-07-31 13:05:51","torrent":{"xt":"urn:btih:f96d6d7fbfa353947a658f8cb0cd9e293c7121cb","amp;dn":"Love+Child+S03E07+1080P+WEB-DL+AAC2+0+H+264","amp;tr":["udp%3A%2F%2Ftracker.leechers-paradise.org%3A6969","udp%3A%2F%2Fzer0day.ch%3A1337","udp%3A%2F%2Fopen.demonii.com%3A1337","udp%3A%2F%2Ftracker.coppersurfer.tk%3A6969","udp%3A%2F%2Fexodus.desync.com%3A6969"],"infoHash":"f96d6d7fbfa353947a658f8cb0cd9e293c7121cb","infoHashBuffer":{"type":"Buffer","data":[249,109,109,127,191,163,83,148,122,101,143,140,176,205,158,41,60,113,33,203]},"announce":[],"urlList":[]}}